# xmcd
#
# Track frame offsets:
#	225
#	24419
#	42744
#	57258
#	76792
#	92051
#	108616
#	124686
#	142869
#	165910
#	183501
#	200546
#	220654
#	238566
#
# Disc length: 3476 seconds
#
# Revision: 1
# Processed by: cddbd v1.5.2PL0 Copyright (c) Steve Scherf et al.
# Submitted via: audiograbber 1.83.01
#
DISCID=b70d910e
DTITLE=Johan Vercueil - Soene van U mond
DYEAR=2008
DGENRE=Gospel
TTITLE0=Jy roep uit help my
TTITLE1=Weer Probeer
TTITLE2=Ek sal U water drink
TTITLE3=Soene van U mond
TTITLE4=Sê jy vir my
TTITLE5=Olie vir 'n seerplek
TTITLE6=Take us deeper
TTITLE7=Oase
TTITLE8=Kom soos 'n kind
TTITLE9=Om my te kom haal
TTITLE10=Ek Glo
TTITLE11=Mooi soos blomme
TTITLE12=Messiah's disciples
TTITLE13=Kom Koning kom
EXTD=
EXTT0=
EXTT1=
EXTT2=
EXTT3=
EXTT4=
EXTT5=
EXTT6=
EXTT7=
EXTT8=
EXTT9=
EXTT10=
EXTT11=
EXTT12=
EXTT13=
PLAYORDER=
